# xmcd CD database file
#
# Track frame offsets:
#	182
#	41327
#	50280
#	68960
#	97622
#	115047
#	139587
#	159167
#	198647
#	247340
#
# Disc length: 3819 seconds
#
# Revision: 0
# Processed by: cddbd v1.4PL0 Copyright (c) Steve Scherf et al.
# Submitted via: CDex 1.50
#
DISCID=7e0ee90a
DTITLE=Chawata - Sadovsky Masovitch
DYEAR=1997
DGENRE=Jazz
TTITLE0=My first peplum and Le couteau de l'espace
TTITLE1=A la poursuite de Tomi and Tourista
TTITLE2=Exacerbe ton système pileux and Le piano qui s'agite
TTITLE3=Sadovsky Masovitch
TTITLE4=Mékouïenska and 900 francs d'amende à Jébobola
TTITLE5=Mission possible and Intercide sous Ahmed
TTITLE6=Transylvanor and Dr Octopad
TTITLE7=Ornitho page and Moule intergalactique
TTITLE8=Bill'domb creusot-loir and Transylvanor unplugged
TTITLE9=Evil dread (Karl haro mix)
EXTD=YEAR: 1997
EXTT0=
EXTT1=
EXTT2=
EXTT3=
EXTT4=
EXTT5=
EXTT6=
EXTT7=
EXTT8=
EXTT9=
PLAYORDER=
